<svg width="64" height="64" viewBox="0 0 64 64" fill="none" xmlns="http://www.w3.org/2000/svg" stroke="#1a1a2e" stroke-width="2" stroke-linecap="round" stroke-linejoin="round">
  <path d="M32 8 a7 7 0 0 1 4.2 12.6 c-1.2 .9 -1.6 1.8 -1.6 3.2 h-5.2 c0 -1.4 -.4 -2.3 -1.6 -3.2 A7 7 0 0 1 32 8 Z" />
  <path d="M29.6 26.5 h4.8" />
  <path d="M32 2 v3" />
  <path d="M22 6 l2 2.2" />
  <path d="M42 6 l-2 2.2" />
  <path d="M18 15 l2.6 .9" />
  <path d="M46 15 l-2.6 .9" />
  <circle cx="16" cy="38" r="6" />
  <path d="M6 56 a10 10 0 0 1 20 0" />
  <circle cx="48" cy="38" r="6" />
  <path d="M38 56 a10 10 0 0 1 20 0" />
</svg>
