<svg width="64" height="64" viewBox="0 0 64 64" fill="none" xmlns="http://www.w3.org/2000/svg" stroke="#1a1a2e" stroke-width="2" stroke-linecap="round" stroke-linejoin="round">
  <path d="M34 11 a13 13 0 0 0 -13 13 c0 4 1.5 6 3 8 v6 h5 v4"/>
  <g stroke-width="1.6">
    <circle cx="29" cy="22" r="4.2" />
    <g>
      <path d="M29 16 v2" /><path d="M29 26 v2" />
      <path d="M23 22 h2" /><path d="M33 22 h2" />
      <path d="M24.8 17.8 l1.4 1.4" /><path d="M31.8 24.8 l1.4 1.4" />
      <path d="M33.2 17.8 l-1.4 1.4" /><path d="M26.2 24.8 l-1.4 1.4" />
    </g>
  </g>
  <path d="M29 46 v4" stroke-dasharray="2 2.5" />
  <path d="M16 50 h26" />
  <path d="M16 50 v3" stroke-dasharray="2 2.5" />
  <path d="M29 50 v3" stroke-dasharray="2 2.5" />
  <path d="M42 50 v3" stroke-dasharray="2 2.5" />
  <circle cx="16" cy="57" r="4.5" />
  <path d="M14.3 56.3 a1.7 1.7 0 0 1 3.4 0 c0 1 -1 1.2 -1 2 h-1.4 c0 -.8 -1 -1 -1 -2" stroke-width="1.3" />
  <circle cx="29" cy="57" r="4.5" />
  <text x="29" y="60" font-family="Arial, sans-serif" font-size="6" font-weight="700" fill="#1a1a2e" stroke="none" text-anchor="middle">?</text>
  <circle cx="42" cy="57" r="4.5" />
  <path d="M39.8 57 l1.5 1.6 l2.7 -3" stroke-width="1.4" />
</svg>
